<?xml version="1.0" encoding="UTF-8"?>
<!DOCTYPE svg PUBLIC "-//W3C//DTD SVG 1.1//EN" "http://www.w3.org/Graphics/SVG/1.1/DTD/svg11.dtd">
<!-- Creator: CorelDRAW X7 -->
<svg xmlns="http://www.w3.org/2000/svg" xml:space="preserve" width="41.5mm" height="23.5mm" version="1.1" style="shape-rendering:geometricPrecision; text-rendering:geometricPrecision; image-rendering:optimizeQuality; fill-rule:evenodd; clip-rule:evenodd"
viewBox="0 0 4150 2350"
 xmlns:xlink="http://www.w3.org/1999/xlink">
 <defs>
  <style type="text/css">
   <![CDATA[
    .fil0 {fill:#411900;fill-rule:nonzero}
   ]]>
  </style>
 </defs>
 <g id="Слой_x0020_1">
  <metadata id="CorelCorpID_0Corel-Layer"/>
  <g id="_2773967262240">
   <path class="fil0" d="M1427 2173c24,-38 42,-70 52,-98 11,-27 16,-53 16,-77 0,-11 -2,-20 -5,-27 -4,-7 -9,-10 -16,-10 -13,0 -25,10 -34,30 -9,21 -13,47 -13,79l0 103zm-41 132l0 -5c3,-3 6,-7 8,-12 1,-6 2,-13 2,-22l0 -179c0,-37 9,-68 26,-94 17,-26 37,-39 59,-39 12,0 20,4 27,11 7,7 11,17 11,28 0,18 -7,40 -19,65 -12,26 -36,67 -73,123l0 33c13,-14 25,-26 37,-34 12,-7 22,-11 31,-11 8,0 14,2 19,7 5,4 8,10 8,18l0 67c0,8 1,13 3,17 1,4 4,6 9,6 10,0 24,-8 39,-24 16,-16 31,-36 44,-62l6 2c-16,29 -34,53 -55,71 -20,18 -39,27 -57,27 -6,0 -10,-2 -14,-6 -4,-5 -5,-10 -5,-17l0 -72c0,-7 -2,-11 -4,-14 -3,-3 -7,-5 -12,-5 -5,0 -11,3 -19,9 -8,6 -18,16 -30,29l0 72 -41 11zm298 -13c2,0 4,0 6,1 2,0 5,0 7,0 27,0 51,-8 71,-23 20,-16 39,-39 55,-71l6 2c-18,33 -37,58 -59,74 -21,15 -47,23 -76,23 -5,0 -10,0 -14,0 -3,0 -7,0 -11,-1 -2,1 -4,1 -6,1 -2,0 -4,0 -7,0 -19,0 -34,-5 -45,-14 -11,-9 -16,-21 -16,-37 0,-20 9,-38 26,-54 17,-16 38,-24 61,-24 16,0 29,5 39,13 11,9 16,20 16,34 0,15 -5,30 -15,44 -10,14 -22,25 -38,32zm-17 -115c-11,0 -21,5 -28,14 -7,9 -11,21 -11,36 0,19 4,35 11,46 7,12 16,18 28,18 11,0 21,-5 28,-14 7,-9 10,-22 10,-38 0,-18 -3,-33 -10,-45 -7,-11 -16,-17 -28,-17zm246 89l0 -63c0,-7 -1,-11 -3,-14 -3,-3 -7,-5 -12,-5 -5,0 -12,3 -19,9 -8,6 -18,16 -31,29l0 72 -40 12 0 -6c3,-2 6,-7 7,-12 2,-6 3,-13 3,-22l0 -95 37 -11 0 5c-2,2 -4,4 -5,6 -1,3 -2,5 -2,8l0 2 0 34c14,-15 26,-26 38,-34 12,-8 22,-12 31,-12 8,0 14,2 19,7 5,5 7,11 7,18l0 21c14,-15 26,-26 38,-34 12,-8 23,-12 32,-12 8,0 14,2 19,7 5,5 7,11 7,18l0 67c0,8 1,13 3,17 2,4 5,6 9,6 11,0 24,-8 40,-24 16,-15 30,-36 44,-61l5 2c-15,29 -33,53 -54,70 -21,18 -40,27 -58,27 -5,0 -10,-2 -14,-6 -3,-5 -5,-10 -5,-17l0 -72c0,-7 -1,-11 -4,-14 -2,-3 -6,-5 -11,-5 -6,0 -12,3 -20,9 -8,6 -18,16 -31,29l0 72 -40 12 0 -6c3,-3 6,-7 8,-12 2,-6 2,-13 2,-22zm248 -10c14,-9 26,-18 33,-27 8,-9 11,-18 11,-27 0,-8 -2,-14 -6,-18 -4,-5 -10,-7 -17,-7 -9,0 -17,3 -23,11 -6,7 -9,17 -9,29 0,8 1,14 3,21 2,6 4,12 8,18zm152 -57l6 2c-17,32 -36,57 -57,73 -21,16 -45,24 -70,24 -20,0 -37,-6 -49,-17 -13,-11 -19,-26 -19,-45 0,-18 6,-34 20,-47 13,-13 30,-20 49,-20 9,0 17,3 23,8 6,5 9,11 9,19 0,10 -5,20 -15,31 -10,10 -26,21 -46,33 6,9 14,16 22,20 8,5 17,7 26,7 18,0 35,-7 52,-23 18,-15 34,-37 49,-65zm275 0l6 2c-17,32 -36,57 -57,73 -21,16 -44,24 -70,24 -20,0 -37,-6 -49,-17 -13,-11 -19,-27 -19,-46 0,-20 7,-36 20,-48 14,-12 32,-18 54,-18 9,0 17,2 22,6 6,3 9,8 9,13 0,5 -2,10 -6,15 -4,5 -11,10 -21,16l-4 -3c1,-2 3,-5 4,-8 1,-2 1,-5 1,-8 0,-7 -2,-13 -6,-17 -4,-5 -9,-7 -14,-7 -10,0 -18,4 -23,10 -6,7 -9,16 -9,28 0,21 6,38 18,52 13,14 27,21 44,21 17,0 35,-7 52,-22 17,-15 33,-37 48,-66zm67 93c2,0 4,0 6,1 2,0 5,0 7,0 27,0 51,-8 71,-23 20,-16 39,-39 55,-71l6 2c-18,33 -38,58 -59,74 -21,15 -47,23 -76,23 -5,0 -10,0 -14,0 -3,0 -7,0 -11,-1 -2,1 -4,1 -6,1 -2,0 -5,0 -7,0 -19,0 -34,-5 -45,-14 -11,-9 -16,-21 -16,-37 0,-20 9,-38 26,-54 17,-16 38,-24 61,-24 16,0 29,5 39,13 11,9 16,20 16,34 0,15 -5,30 -15,44 -10,14 -22,25 -38,32zm-17 -115c-11,0 -21,5 -28,14 -7,9 -11,21 -11,36 0,19 4,35 11,46 7,12 16,18 28,18 11,0 21,-5 28,-14 7,-9 10,-22 10,-38 0,-18 -3,-33 -10,-45 -7,-11 -16,-17 -28,-17zm187 -18c21,-31 36,-60 47,-88 11,-27 16,-52 16,-74 0,-11 -2,-19 -5,-25 -3,-6 -8,-9 -14,-9 -14,0 -25,11 -32,34 -8,22 -12,53 -12,93l0 69zm0 88c0,17 1,27 4,32 2,5 7,7 14,7 12,0 27,-8 44,-24 18,-16 33,-37 47,-63l5 2c-15,30 -34,53 -55,71 -21,17 -41,26 -60,26 -10,0 -17,-4 -22,-11 -5,-7 -7,-19 -7,-35l0 -152c0,-41 8,-76 25,-104 17,-28 36,-42 58,-42 10,0 18,3 23,10 6,7 8,17 8,30 0,18 -7,41 -21,71 -15,30 -36,65 -63,105l0 77zm139 -88c21,-31 36,-60 47,-88 11,-27 16,-52 16,-74 0,-11 -2,-19 -5,-25 -3,-6 -8,-9 -14,-9 -14,0 -25,11 -33,34 -7,22 -11,53 -11,93l0 69zm0 88c0,17 1,27 4,32 2,5 7,7 14,7 12,0 27,-8 44,-24 18,-16 33,-37 47,-63l5 2c-15,30 -34,53 -55,71 -21,17 -41,26 -60,26 -10,0 -17,-4 -22,-11 -5,-7 -7,-19 -7,-35l0 -152c0,-41 8,-76 25,-104 17,-28 36,-42 58,-42 10,0 18,3 23,10 6,7 8,17 8,30 0,18 -7,41 -21,71 -15,30 -36,65 -63,105l0 77zm134 9c15,-9 26,-18 34,-27 7,-9 11,-18 11,-27 0,-8 -2,-14 -7,-18 -4,-5 -10,-7 -17,-7 -9,0 -17,3 -22,11 -6,7 -9,17 -9,29 0,8 1,14 2,21 2,6 5,12 8,18zm153 -57l5 2c-17,32 -36,57 -57,73 -21,16 -44,24 -69,24 -21,0 -37,-6 -50,-17 -13,-11 -19,-26 -19,-45 0,-18 7,-34 20,-47 14,-13 30,-20 49,-20 10,0 17,3 23,8 6,5 9,11 9,19 0,10 -5,20 -15,31 -10,10 -25,21 -46,33 7,9 14,16 22,20 9,5 17,7 27,7 17,0 34,-7 52,-23 17,-15 33,-37 49,-65zm178 0l5 2c-17,32 -36,57 -57,73 -21,16 -44,24 -69,24 -21,0 -37,-6 -50,-17 -12,-11 -19,-27 -19,-46 0,-20 7,-36 21,-48 13,-12 31,-18 54,-18 9,0 16,2 22,6 6,3 8,8 8,13 0,5 -2,10 -6,15 -4,5 -11,10 -21,16l-4 -3c2,-2 3,-5 4,-8 1,-2 2,-5 2,-8 0,-7 -2,-13 -6,-17 -4,-5 -9,-7 -15,-7 -9,0 -17,4 -23,10 -5,7 -8,16 -8,28 0,21 6,38 18,52 12,14 27,21 43,21 18,0 35,-7 52,-22 17,-15 34,-37 49,-66zm1 -62l-33 15 0 -7 33 -14 0 -79 46 -13 0 4c-6,3 -11,7 -13,10 -2,4 -3,9 -3,16l0 49 42 -19 0 7 -42 18 0 136c0,11 1,18 4,21 2,4 7,6 13,6 13,0 28,-8 45,-24 17,-16 33,-38 47,-64l5 2c-16,30 -35,54 -55,71 -21,17 -41,26 -62,26 -10,0 -17,-2 -21,-7 -4,-4 -6,-14 -6,-28l0 -126zm169 110c0,15 1,26 4,31 3,5 7,8 13,8 13,0 28,-8 45,-24 17,-16 33,-37 46,-63l6 2c-16,29 -34,53 -55,71 -21,17 -41,26 -60,26 -8,0 -15,-3 -21,-10 -6,-6 -8,-14 -8,-25l0 -89 45 -14 0 5c-6,3 -10,6 -12,10 -2,3 -3,8 -3,16l0 56zm-31 -170c0,-4 2,-9 5,-12 4,-4 8,-6 13,-6 5,0 9,2 13,6 4,3 6,7 6,12 0,5 -2,9 -6,13 -4,4 -8,5 -13,5 -4,0 -8,-1 -12,-5 -4,-4 -6,-8 -6,-13zm205 215c3,0 5,0 7,1 2,0 4,0 7,0 27,0 50,-8 70,-23 21,-16 39,-39 56,-71l5 2c-17,33 -37,58 -59,74 -21,15 -46,23 -75,23 -6,0 -11,0 -14,0 -4,0 -8,0 -12,-1 -2,1 -4,1 -6,1 -2,0 -4,0 -7,0 -18,0 -33,-5 -44,-14 -11,-9 -17,-21 -17,-37 0,-20 9,-38 26,-54 18,-16 38,-24 61,-24 16,0 30,5 40,13 10,9 15,20 15,34 0,15 -5,30 -14,44 -10,14 -23,25 -39,32zm-16 -115c-12,0 -21,5 -29,14 -7,9 -10,21 -10,36 0,19 3,35 10,46 7,12 17,18 28,18 12,0 21,-5 28,-14 7,-9 10,-22 10,-38 0,-18 -3,-33 -10,-45 -7,-11 -16,-17 -27,-17zm140 129l0 -6c4,-2 6,-7 8,-12 1,-6 2,-13 2,-22l0 -95 38 -11 0 5c-3,2 -4,4 -5,6 -2,3 -2,5 -2,8l0 2 0 34c13,-15 26,-26 37,-34 12,-8 23,-12 32,-12 7,0 14,2 19,7 4,5 7,11 7,18l0 67c0,8 1,13 3,17 2,4 5,6 9,6 11,0 24,-8 40,-24 16,-15 30,-36 44,-61l5 2c-15,29 -33,53 -54,70 -21,18 -40,27 -58,27 -5,0 -10,-2 -14,-6 -3,-5 -5,-10 -5,-17l0 -72c0,-7 -1,-11 -4,-14 -2,-3 -6,-5 -12,-5 -5,0 -11,3 -19,9 -8,6 -18,16 -30,29l0 72 -41 12z"/>
   <path class="fil0" d="M361 2326l-5 -92c24,-4 44,-15 60,-31 16,-16 28,-41 38,-75 10,-33 15,-71 15,-114 0,-37 -4,-70 -11,-99 -8,-29 -18,-50 -31,-64 -12,-14 -26,-21 -41,-21 -16,0 -29,7 -40,20 -12,14 -21,36 -29,67 -5,20 -13,64 -24,133 -11,68 -21,116 -30,143 -13,36 -28,62 -46,79 -18,18 -38,26 -61,26 -25,0 -48,-10 -69,-32 -22,-21 -38,-52 -49,-93 -11,-41 -17,-86 -17,-136 0,-56 6,-104 18,-146 11,-42 29,-75 51,-97 23,-23 49,-35 77,-37l5 95c-31,5 -54,22 -70,51 -16,29 -23,73 -23,130 0,59 7,103 21,130 14,27 32,41 52,41 17,0 32,-10 43,-29 12,-19 23,-69 35,-149 12,-80 22,-134 31,-164 13,-43 30,-75 50,-96 20,-21 43,-31 69,-31 26,0 50,12 73,34 23,23 41,55 54,98 13,42 19,90 19,143 0,67 -6,123 -19,169 -13,45 -32,81 -58,106 -26,26 -55,40 -88,41zm157 -721l-488 0 0 -98 242 0 -242 -370 0 -133 198 312 290 -326 0 130 -247 265 78 122 169 0 0 98zm0 -906l-207 0 -281 286 0 -118 147 -147c28,-27 55,-53 82,-76 -25,-23 -54,-50 -86,-82l-143 -144 0 -115 281 297 207 0 0 99z"/>
   <polygon class="fil0" points="592,2307 592,292 16,292 16,24 1399,24 1399,292 823,292 823,2307 "/>
   <polygon class="fil0" points="1376,1770 1376,24 2755,24 2755,229 1629,229 1629,765 2682,765 2682,970 1629,970 1629,1565 2800,1565 2800,1770 "/>
   <path class="fil0" d="M2522 1770l675 -906 -595 -840 276 0 318 447c66,92 112,163 139,212 39,-61 86,-126 139,-195l349 -464 253 0 -607 830 653 916 -284 0 -440 -623c-25,-35 -49,-70 -72,-105 -39,58 -66,99 -84,123l-442 605 -278 0z"/>
  </g>
 </g>
</svg>
